<svg xmlns="http://www.w3.org/2000/svg" xmlns:xlink="http://www.w3.org/1999/xlink" viewBox="0,0,256,256" width="24px" height="24px" fill-rule="nonzero"><g fill="#000000" fill-rule="nonzero" stroke="none" stroke-width="1" stroke-linecap="butt" stroke-linejoin="miter" stroke-miterlimit="10" stroke-dasharray="" stroke-dashoffset="0" font-family="none" font-weight="none" font-size="none" text-anchor="none" style="mix-blend-mode: normal"><g transform="scale(5.12,5.12)"><path d="M12,3c-4.96,0 -9,4.04 -9,9v13.39063l13.44922,6.71875c0.49,0.24 0.69141,0.83984 0.44141,1.33984c-0.17,0.35 -0.52062,0.55078 -0.89062,0.55078c-0.15,0 -0.29922,-0.02938 -0.44922,-0.10937l-12.55078,-6.27148v10.38086c0,4.96 4.04,9 9,9h26c4.96,0 9,-4.04 9,-9v-26c0,-4.96 -4.04,-9 -9,-9zM31.5,9c5.24,0 9.5,4.26 9.5,9.5c0,5.24 -4.26,9.5 -9.5,9.5c-1.1,0 -2.15992,-0.18078 -3.16992,-0.55078l-4.75,3.58008c0.28,0.79 0.41992,1.6207 0.41992,2.4707c0,4.14 -3.36,7.5 -7.5,7.5c-4.14,0 -7.5,-3.36 -7.5,-7.5c0,-0.22 0.00953,-0.43062 0.01953,-0.64062l5.64062,2.82031c0.42,0.21 0.87984,0.32031 1.33984,0.32031c1.14,0 2.16969,-0.64016 2.67969,-1.66016c0.74,-1.48 0.14016,-3.27953 -1.33984,-4.01953l-5.44922,-2.73047c1.27,-1 2.86938,-1.58984 4.60938,-1.58984c0.9,0 1.78914,0.1607 2.61914,0.4707l3.45117,-4.7207c-0.38,-1.04 -0.57031,-2.13 -0.57031,-3.25c0,-5.24 4.26,-9.5 9.5,-9.5zM31.5,13c-3.02572,0 -5.5,2.47428 -5.5,5.5c0,3.02572 2.47428,5.5 5.5,5.5c3.02572,0 5.5,-2.47428 5.5,-5.5c0,-3.02572 -2.47428,-5.5 -5.5,-5.5zM31.5,15c1.94484,0 3.5,1.55516 3.5,3.5c0,1.94484 -1.55516,3.5 -3.5,3.5c-1.94484,0 -3.5,-1.55516 -3.5,-3.5c0,-1.94484 1.55516,-3.5 3.5,-3.5z"></path></g></g></svg>